<?xml version="1.0" encoding="utf-8"?>
<svg viewBox="0 0 1862 1862" xmlns="http://www.w3.org/2000/svg">
  <defs>
    <style type="text/css" id="style70">
	.st0{fill:#F5333F;}
	.st1{fill:#BDBEC0;stroke:#BDBEC0;stroke-width:2;stroke-miterlimit:10;}
	.st2{fill:#EF3741;}
	.st3{fill:#333132;}
</style>
  </defs>
  <g id="g82" transform="matrix(5.436171, 0, 0, 5.436171, -50.020073, -12.693716)" style="">
    <path class="st0" d="m 200.62,75.14 c 0,-10.71 -8.71,-19.41 -19.41,-19.41 -10.71,0 -19.41,8.7 -19.41,19.41 0,10.71 8.7,19.42 19.41,19.42 10.7,0 19.41,-8.71 19.41,-19.42" id="path72" style="fill:#f5333f"/>
    <path class="st0" d="m 117.97,242.94 c -10.71,0 -19.42,8.71 -19.42,19.42 0,10.7 8.71,19.4 19.42,19.4 10.7,0 19.41,-8.7 19.41,-19.4 0,-10.71 -8.71,-19.42 -19.41,-19.42" id="path74" style="fill:#f5333f"/>
    <path class="st0" d="m 181.21,133.42 c -14.66,0 -26.53,11.89 -26.53,26.55 0,14.65 11.88,26.53 26.53,26.53 14.66,0 26.53,-11.89 26.53,-26.53 0.01,-14.66 -11.87,-26.55 -26.53,-26.55" id="path76" style="fill:#f5333f"/>
    <path class="st0" d="m 244.46,242.94 c -10.7,0 -19.41,8.71 -19.41,19.42 0,10.7 8.7,19.4 19.41,19.4 10.7,0 19.41,-8.7 19.41,-19.4 0,-10.71 -8.72,-19.42 -19.41,-19.42" id="path78" style="fill:#f5333f"/>
    <path class="st0" d="m 244.46,291.08 c -15.84,0 -28.73,-12.89 -28.73,-28.73 0,-8.77 3.97,-16.63 10.19,-21.9 l -27.41,-45.78 c -5.21,2.6 -11.06,4.1 -17.29,4.1 -6.23,0 -12.08,-1.5 -17.3,-4.1 l -27.41,45.78 c 6.23,5.27 10.18,13.13 10.18,21.9 0,15.84 -12.88,28.73 -28.72,28.73 -15.84,0 -28.73,-12.89 -28.73,-28.73 0,-15.84 12.89,-28.73 28.73,-28.73 3.72,0 7.28,0.74 10.55,2.04 l 27.6,-46.11 c -8.39,-7.12 -13.72,-17.72 -13.72,-29.58 0,-19.86 14.92,-36.21 34.16,-38.51 v -18 c -13.63,-2.23 -24.07,-14.06 -24.07,-28.31 0,-15.84 12.89,-28.73 28.73,-28.73 15.84,0 28.72,12.89 28.72,28.73 0,14.25 -10.44,26.08 -24.06,28.31 v 18 c 19.25,2.31 34.16,18.65 34.16,38.51 0,11.87 -5.34,22.47 -13.73,29.58 l 27.61,46.11 c 3.27,-1.3 6.83,-2.04 10.55,-2.04 15.84,0 28.72,12.89 28.72,28.73 0,15.84 -12.89,28.73 -28.73,28.73 M 58.18,160.12 c 0,-20.73 13,-38.01 34.75,-38.01 15.85,0 29.16,8.45 31.09,24.8 h -12.4 c -1.21,-9.54 -9.54,-14.43 -18.69,-14.43 -15.56,0 -22.05,13.71 -22.05,27.64 0,13.93 6.49,27.64 22.05,27.64 13,0.21 20.11,-7.62 20.32,-19.91 h -19.3 v -9.66 h 30.89 v 38.21 h -8.13 l -1.93,-8.53 c -6.81,7.72 -13,10.26 -21.84,10.26 -21.76,0 -34.76,-17.28 -34.76,-38.01 M 179.98,4.71 c -93.56,0 -169.42,75.85 -169.42,169.43 0,93.56 75.86,169.42 169.42,169.42 93.57,0 169.42,-75.86 169.42,-169.42 C 349.4,80.56 273.56,4.71 179.98,4.71" id="path80" style="fill:#f5333f"/>
  </g>
</svg>